<svg width="207" height="40" viewBox="0 0 207 40" fill="none" xmlns="http://www.w3.org/2000/svg">
<path fill-rule="evenodd" clip-rule="evenodd" d="M12.9352 36.1229C12.8024 36.1217 12.6715 36.09 12.5528 36.0304C12.4341 35.9708 12.3306 35.8847 12.2502 35.7789C12.0221 35.4756 11.868 35.1233 11.8002 34.7499C11.6918 34.2746 11.6084 33.7939 11.5502 33.3099C11.4811 32.6866 11.4457 32.06 11.4442 31.4329C11.4237 30.0549 11.4283 28.6767 11.4582 27.2989C11.4762 26.4529 11.4842 25.7929 11.4842 25.3169V9.56489C11.4842 8.78889 11.4892 8.19889 11.4982 7.79389C11.5072 7.38889 11.5382 6.93089 11.5892 6.41989C11.6192 6.03989 11.6852 5.66389 11.7882 5.29689C11.8882 5.01389 12.0212 4.74389 12.1832 4.49089C12.3332 4.22589 12.5512 4.00689 12.8162 3.85689C13.1242 3.70289 13.4412 3.56689 13.7652 3.44689C14.1827 3.29171 14.6155 3.18109 15.0562 3.11689C15.6305 3.03305 16.2067 2.96237 16.7842 2.90489V1.44989L16.3342 0.999894H0.412234L-0.00976562 1.44989V2.69189C2.66223 2.85089 4.15623 3.60889 4.47223 4.96489C4.65623 6.10989 4.74423 7.26789 4.73623 8.42689V32.5539C4.78044 33.8071 4.72728 35.0619 4.57723 36.3069C4.50423 36.5009 4.39723 36.6789 4.26123 36.8349C4.0576 37.0784 3.84235 37.3121 3.61623 37.5349C3.43708 37.708 3.26558 37.8888 3.10223 38.0769V39.0019C16.6892 39.0019 25.0992 39.0899 28.3322 39.2669L29.4672 35.4349L28.7552 34.9319C23.5052 35.5929 18.2252 35.9899 12.9362 36.1219L12.9352 36.1229ZM38.1912 25.0769C38.1397 25.0913 38.0867 25.1001 38.0332 25.1029C37.7702 25.1029 37.6382 25.0069 37.6382 24.8129C37.6392 23.9369 37.7052 23.0619 37.8362 22.1959C37.9842 21.2519 38.2312 20.3259 38.5742 19.4349C38.9048 18.5315 39.358 17.6778 39.9212 16.8979C40.5182 16.1045 41.2933 15.4626 42.1841 15.0242C43.075 14.5857 44.0564 14.363 45.0492 14.3739C45.7657 14.3341 46.4802 14.4814 47.1225 14.8012C47.7649 15.121 48.3131 15.6023 48.7132 16.1979C49.5444 17.4297 49.9772 18.8871 49.9532 20.3729C49.9497 20.6453 49.8632 20.9101 49.7052 21.132C49.5473 21.3539 49.3254 21.5224 49.0692 21.6149C47.6256 22.1967 46.1514 22.6997 44.6532 23.1219C42.5462 23.7419 40.446 24.3853 38.3532 25.0519C38.2985 25.0542 38.2441 25.0626 38.1912 25.0769ZM53.8512 33.3219C50.6862 35.2419 47.9532 36.2019 45.6532 36.2019C44.0951 36.2357 42.5651 35.7831 41.2762 34.9069C40.0772 34.1023 39.1238 32.9821 38.5212 31.6699C37.9279 30.354 37.6267 28.9253 37.6382 27.4819C49.1332 23.9059 54.9332 22.1169 55.0382 22.1169C55.4947 22.0235 55.9027 21.7696 56.188 21.4011C56.4733 21.0327 56.617 20.5742 56.5932 20.1089C56.6245 18.8116 56.3204 17.5282 55.7102 16.3829C55.1531 15.3585 54.3285 14.5045 53.3242 13.9119C52.3111 13.3172 51.2131 12.8805 50.0682 12.6169C48.8264 12.3357 47.5564 12.1982 46.2832 12.2069C43.9992 12.1715 41.7342 12.6267 39.6412 13.5419C37.7958 14.339 36.1654 15.5617 34.8832 17.1099C33.6744 18.6069 32.7416 20.3071 32.1282 22.1309C31.4922 24.0075 31.1712 25.9764 31.1782 27.9579C31.1782 32.0279 32.2782 35.0759 34.4742 37.1019C36.4602 38.9519 39.2642 39.8759 42.8842 39.8759C44.9598 39.8546 47.0029 39.3575 48.8562 38.4229C51.0881 37.3113 53.2261 36.0204 55.2492 34.5629L54.6722 33.5349L53.8512 33.3219ZM89.3602 5.45689C88.6538 3.61168 87.2665 2.10772 85.4842 1.25489C83.2764 0.326042 80.8916 -0.106812 78.4982 -0.0131064C76.7516 -0.0231252 75.0109 0.189931 73.3182 0.620894C71.7437 1.0218 70.2406 1.66372 68.8622 2.52389C67.5121 3.37504 66.4079 4.56436 65.6592 5.97389C64.8465 7.51566 64.4381 9.23837 64.4722 10.9809C64.4713 12.2282 64.7744 13.457 65.3552 14.5609C65.91 15.6534 66.6608 16.6347 67.5702 17.4559C68.5482 18.3185 69.5876 19.1089 70.6802 19.8209C71.7769 20.5516 72.9126 21.2219 74.0822 21.8289C75.1818 22.3941 76.2633 22.9937 77.3252 23.6269C78.2052 24.1249 79.0312 24.7139 79.7902 25.3839C81.7402 27.1989 82.7162 28.9249 82.7162 30.5639C82.7127 31.4345 82.5307 32.2951 82.1815 33.0927C81.8324 33.8902 81.3235 34.6077 80.6862 35.2009C80.0537 35.852 79.2949 36.3672 78.4563 36.7149C77.6177 37.0626 76.717 37.2354 75.8092 37.2229C74.7479 37.2534 73.6936 37.0406 72.7271 36.6009C71.7606 36.1611 70.9076 35.5061 70.2332 34.6859C68.8339 33.0835 68.0698 31.0242 68.0852 28.8969L67.0582 28.5269L61.8122 34.4199C63.0111 36.1551 64.6367 37.5523 66.5322 38.4769C68.4596 39.4225 70.5805 39.9069 72.7272 39.8919C74.6861 39.882 76.6323 39.5787 78.5012 38.9919C80.3807 38.4261 82.173 37.6033 83.8272 36.5469C85.3999 35.5426 86.7354 34.2085 87.7412 32.6369C88.7271 31.1425 89.2541 29.3922 89.2572 27.6019C89.2651 26.6411 89.0956 25.6871 88.7572 24.7879C88.4442 23.9528 88.0088 23.1689 87.4652 22.4619C86.8254 21.677 86.085 20.9796 85.2632 20.3879C84.3653 19.7107 83.4276 19.088 82.4552 18.5229C81.2914 17.8597 80.1138 17.2209 78.9232 16.6069C78.0931 16.2045 77.2754 15.777 76.4712 15.3249C75.7107 14.8804 74.9707 14.402 74.2532 13.8909C73.5177 13.3867 72.8455 12.7958 72.2512 12.1309C71.729 11.5104 71.3023 10.8154 70.9852 10.0689C70.6333 9.26505 70.4538 8.39638 70.4582 7.51889C70.442 6.80124 70.57 6.08763 70.8345 5.42031C71.099 4.75299 71.4947 4.14553 71.9982 3.63389C72.5304 3.10204 73.1672 2.68653 73.8683 2.41369C74.5694 2.14085 75.3196 2.01662 76.0712 2.04889C77.0023 2.00868 77.9307 2.17494 78.79 2.53576C79.6492 2.89657 80.418 3.44301 81.0412 4.13589C82.29 5.5492 83.0765 7.31068 83.2952 9.18389L84.2182 9.47389L89.3602 5.45689ZM114.998 15.5919C114.527 14.7671 113.845 14.0829 113.021 13.6099C112.206 13.1441 111.327 12.8014 110.411 12.5929C109.429 12.3751 108.425 12.2687 107.419 12.2759C105.5 12.2489 103.592 12.5759 101.79 13.2409C100.245 13.8022 98.828 14.6695 97.6252 15.7909C96.5075 16.8738 95.5805 18.1375 94.8832 19.5289C94.1666 20.9286 93.639 22.4173 93.3142 23.9559C92.9939 25.5121 92.8351 27.0971 92.8402 28.6859C92.8342 30.0359 93.0252 31.3799 93.4062 32.6739C93.7762 33.9269 94.3512 35.1099 95.1062 36.1759C95.9024 37.2754 96.9702 38.1496 98.2052 38.7129C99.6232 39.3609 101.168 39.6819 102.726 39.6509C107.665 39.6509 112.305 37.4749 116.646 33.1239L116.119 32.3569L115.46 32.1989C112.244 34.6829 109.273 35.9249 106.549 35.9249C105.529 35.9413 104.521 35.71 103.61 35.2509C102.785 34.841 102.066 34.2442 101.511 33.5079C100.961 32.751 100.513 31.9245 100.179 31.0499C99.8331 30.1766 99.5814 29.2687 99.4282 28.3419C99.2882 27.4679 99.2182 26.5839 99.2172 25.6989C99.2232 24.5739 99.3202 23.4519 99.5072 22.3429C99.7142 21.1079 100.023 19.8929 100.43 18.7089C100.8 17.5518 101.442 16.5003 102.302 15.6429C102.681 15.2592 103.133 14.9551 103.631 14.7487C104.129 14.5423 104.663 14.4376 105.202 14.4409C105.923 14.4012 106.64 14.5632 107.273 14.9088C107.906 15.2543 108.431 15.7697 108.787 16.3969C109.602 17.8656 110.003 19.5281 109.947 21.2069L110.87 21.5769L115.853 18.6179C115.812 17.5557 115.519 16.5185 114.998 15.5919ZM124.661 23.4539C124.795 22.4159 125.029 21.3939 125.36 20.4019C125.663 19.4369 126.093 18.5179 126.638 17.6669C127.162 16.8786 127.862 16.2227 128.682 15.7509C129.567 15.2401 130.574 14.9798 131.595 14.9979C132.703 14.9697 133.796 15.2583 134.745 15.8299C135.627 16.3792 136.336 17.1673 136.788 18.1029C137.265 19.0699 137.61 20.0959 137.815 21.1549C138.032 22.2949 138.139 23.4549 138.132 24.6169C138.132 25.6739 138.123 26.5549 138.105 27.2589C138.077 28.107 138.016 28.9536 137.921 29.7969C137.843 30.6269 137.698 31.4479 137.486 32.2539C137.279 32.9639 137.01 33.6539 136.682 34.3159C136.38 34.9712 135.945 35.5561 135.403 36.0329C134.844 36.4894 134.211 36.8469 133.531 37.0899C132.707 37.3848 131.836 37.5281 130.961 37.5129C129.997 37.5247 129.053 37.2383 128.258 36.6929C127.483 36.1734 126.838 35.4818 126.374 34.6719C125.887 33.8003 125.506 32.8733 125.24 31.9109C124.96 30.9638 124.757 29.9957 124.633 29.0159C124.531 28.1697 124.478 27.3182 124.475 26.4659C124.475 25.459 124.537 24.4531 124.661 23.4539ZM121.392 37.1169C123.307 38.8609 126.348 39.7329 130.514 39.7329C132.054 39.7429 133.59 39.5659 135.088 39.2039C136.497 38.8536 137.841 38.2782 139.066 37.4999C140.298 36.7226 141.376 35.7233 142.243 34.5529C143.192 33.2258 143.898 31.7402 144.326 30.1659C144.858 28.2567 145.116 26.2816 145.091 24.2999C145.142 22.7043 144.846 21.1167 144.222 19.6473C143.598 18.1778 142.662 16.8615 141.479 15.7899C139.281 13.8179 136.091 12.8309 131.909 12.8309C127.726 12.8309 124.281 14.1259 121.574 16.7159C120.245 17.972 119.197 19.4946 118.497 21.1842C117.797 22.8737 117.462 24.692 117.514 26.5199C117.514 31.2419 118.805 34.7739 121.389 37.1169H121.392ZM162.65 16.1869C164.056 16.1869 165.058 16.4689 165.656 17.0329C166.213 17.7129 166.565 18.5389 166.67 19.4129C166.891 20.4429 167.028 21.4909 167.079 22.5439C167.114 23.4689 167.132 24.6629 167.132 26.1249C167.131 28.0233 167.118 29.9217 167.093 31.8199C167.084 32.3919 167.088 33.0659 167.105 33.8419C167.11 34.4199 167.145 34.9979 167.211 35.5719C167.264 35.9519 167.334 36.3659 167.422 36.8139C167.483 37.1899 167.608 37.5509 167.791 37.8839C167.949 38.1489 168.143 38.3899 168.369 38.5989C169.16 39.3166 170.201 39.6957 171.268 39.6549C172.587 39.6549 174.098 38.9849 175.803 37.6469C177.226 36.4635 178.581 35.2016 179.863 33.8669L179.257 32.9669H178.624C177.593 33.7941 176.332 34.2833 175.013 34.3679C174.734 34.3839 174.454 34.343 174.191 34.2476C173.928 34.1522 173.687 34.0043 173.483 33.8129C173.301 33.669 173.145 33.4952 173.021 33.2989C172.876 32.9532 172.783 32.5879 172.745 32.2149C172.644 31.4573 172.6 30.6931 172.613 29.9289C172.613 29.3479 172.644 28.4089 172.705 27.1149C172.754 26.1949 172.785 25.2741 172.798 24.3529V22.7669C172.815 21.0579 172.811 19.8739 172.785 19.2119C172.732 18.3087 172.631 17.4091 172.481 16.5169C172.416 15.6757 172.134 14.8656 171.664 14.1649C171.2 13.6614 170.645 13.2494 170.029 12.9499C169.192 12.545 168.269 12.3497 167.34 12.3809C164.247 12.3809 160.661 13.6499 156.584 16.1869L155.951 15.9489C155.917 14.9772 155.601 14.0363 155.042 13.2409C154.523 12.5609 153.631 12.2229 152.366 12.2229C151.608 12.2324 150.856 12.3617 150.138 12.6059C149.303 12.8859 148.506 13.2679 147.764 13.7419C146.964 14.2449 146.27 14.7119 145.681 15.1429C145.092 15.5739 144.411 16.0979 143.638 16.7149L144.613 18.0099C144.793 17.8939 144.973 17.7796 145.154 17.6669C145.461 17.4729 145.729 17.3149 145.958 17.1909C146.186 17.0679 146.459 16.9229 146.775 16.7549C147.058 16.6009 147.354 16.4719 147.659 16.3689C147.892 16.2889 148.136 16.2439 148.383 16.2369C148.688 16.2299 148.989 16.3069 149.253 16.4619C149.521 16.6389 149.723 16.8989 149.831 17.2019C149.963 17.5219 150.077 17.8469 150.173 18.1789C150.281 18.6259 150.343 19.0819 150.358 19.5409C150.394 20.1409 150.415 20.6249 150.422 20.9939C150.43 21.3629 150.434 21.9179 150.435 22.6589V23.1089C150.435 24.8349 150.303 30.1199 150.04 38.9639L150.699 39.3339L156.631 37.6159C156.455 36.8589 156.323 34.4719 156.235 30.4559C156.148 26.5275 156.105 22.5983 156.107 18.6689C159.165 17.0129 161.344 16.1849 162.645 16.1849L162.65 16.1869ZM188.223 25.1969C188.172 25.2122 188.119 25.2216 188.065 25.2249C187.802 25.2249 187.67 25.1279 187.669 24.9349C187.67 24.0579 187.736 23.1839 187.868 22.3179C188.016 21.3739 188.263 20.4479 188.605 19.5559C188.936 18.6529 189.388 17.7989 189.95 17.0189C190.547 16.2253 191.322 15.5832 192.213 15.1447C193.104 14.7063 194.085 14.4836 195.078 14.4949C195.795 14.455 196.509 14.6022 197.152 14.922C197.794 15.2418 198.342 15.7232 198.742 16.3189C199.574 17.5506 200.006 19.0081 199.981 20.4939C199.977 20.766 199.891 21.0306 199.733 21.2524C199.575 21.4742 199.354 21.6428 199.098 21.7359C197.655 22.3174 196.181 22.8204 194.683 23.2429C192.576 23.8628 190.475 24.5062 188.382 25.1729C188.329 25.1758 188.276 25.1842 188.224 25.1979L188.223 25.1969ZM203.883 33.4429C200.718 35.3639 197.985 36.3239 195.684 36.3229C194.126 36.3565 192.596 35.9042 191.307 35.0289C190.109 34.224 189.156 33.1039 188.553 31.7919C187.959 30.4755 187.658 29.046 187.669 27.6019C199.164 24.0269 204.964 22.2389 205.07 22.2389C205.527 22.1451 205.935 21.8909 206.22 21.5224C206.505 21.1538 206.649 20.6953 206.625 20.2299C206.656 18.9326 206.352 17.6492 205.742 16.5039C205.185 15.4795 204.36 14.6255 203.356 14.0329C202.343 13.4384 201.245 13.0018 200.1 12.7379C198.858 12.4566 197.588 12.3191 196.314 12.3279C194.031 12.2927 191.767 12.7479 189.674 13.6629C187.829 14.4599 186.198 15.6826 184.916 17.2309C183.707 18.7277 182.774 20.4279 182.161 22.2519C181.525 24.1284 181.204 26.0975 181.212 28.0789C181.212 32.1489 182.31 35.1959 184.507 37.2229C186.493 39.0729 189.296 39.9969 192.917 39.9969C194.993 39.9755 197.036 39.4785 198.889 38.5439C201.121 37.4321 203.259 36.1415 205.282 34.6849L204.705 33.6559L203.883 33.4429Z" fill="#9C9C9C"/>
</svg>
