<svg width="32" height="32" viewBox="0 0 32 32" fill="none" xmlns="http://www.w3.org/2000/svg">
<path d="M24 10.6667H22.6667V8.00001C22.6667 4.32001 19.68 1.33334 16 1.33334C12.32 1.33334 9.33337 4.32001 9.33337 8.00001V10.6667H8.00004C6.53337 10.6667 5.33337 11.8667 5.33337 13.3333V26.6667C5.33337 28.1333 6.53337 29.3333 8.00004 29.3333H24C25.4667 29.3333 26.6667 28.1333 26.6667 26.6667V13.3333C26.6667 11.8667 25.4667 10.6667 24 10.6667ZM16 22.6667C14.5334 22.6667 13.3334 21.4667 13.3334 20C13.3334 18.5333 14.5334 17.3333 16 17.3333C17.4667 17.3333 18.6667 18.5333 18.6667 20C18.6667 21.4667 17.4667 22.6667 16 22.6667ZM12 10.6667V8.00001C12 5.78668 13.7867 4.00001 16 4.00001C18.2134 4.00001 20 5.78668 20 8.00001V10.6667H12Z" fill="url(#paint0_linear_1_519)"/>
<defs>
<linearGradient id="paint0_linear_1_519" x1="16" y1="1.33334" x2="16" y2="29.3333" gradientUnits="userSpaceOnUse">
<stop stop-color="#FFBF00"/>
<stop offset="1" stop-color="#F2A50C"/>
</linearGradient>
</defs>
</svg>
