<svg width="20" height="17" viewBox="0 0 20 17" fill="none" xmlns="http://www.w3.org/2000/svg">
<path d="M17.46 7C17.3614 7.14578 17.3029 7.31501 17.2907 7.4906C17.2784 7.66618 17.3126 7.84191 17.39 8C17.638 8.579 17.813 9.187 17.91 9.81C18.1674 11.4201 17.9267 13.0705 17.22 14.54C17.1342 14.7012 17.0059 14.8358 16.849 14.9292C16.6921 15.0227 16.5126 15.0713 16.33 15.07H3.68C3.49638 15.0704 3.31619 15.0202 3.1592 14.9249C3.0022 14.8297 2.87447 14.6931 2.79 14.53C2.14988 13.2314 1.87414 11.7835 1.99219 10.3406C2.11023 8.89763 2.61762 7.51376 3.46028 6.3365C4.30294 5.15924 5.44928 4.23271 6.77709 3.6557C8.10489 3.07868 9.56439 2.8728 11 3.06C11.7264 3.14538 12.4369 3.33395 13.11 3.62C13.2681 3.69738 13.4438 3.73165 13.6194 3.71936C13.795 3.70707 13.9642 3.64865 14.11 3.55C14.2619 3.44995 14.3836 3.31036 14.462 3.14628C14.5405 2.98219 14.5727 2.79982 14.5552 2.61879C14.5377 2.43776 14.4712 2.26492 14.3628 2.11888C14.2544 1.97285 14.1082 1.85914 13.94 1.79C12.0082 0.961661 9.8645 0.763091 7.81341 1.2225C5.76232 1.68191 3.90815 2.77594 2.51426 4.34919C1.12037 5.92243 0.257653 7.89489 0.0486524 9.98638C-0.160348 12.0779 0.294996 14.182 1.35 16C1.52451 16.3023 1.77509 16.5536 2.07683 16.7291C2.37858 16.9045 2.72098 16.9979 3.07 17H16.92C17.2724 17.0014 17.619 16.9097 17.9245 16.734C18.2301 16.5584 18.4838 16.3052 18.66 16C19.4324 14.6614 19.884 13.1621 19.9794 11.6196C20.0749 10.0772 19.8115 8.53356 19.21 7.11C19.1338 6.94776 19.0154 6.80898 18.8672 6.70818C18.719 6.60738 18.5464 6.54826 18.3676 6.53701C18.1887 6.52577 18.0101 6.56281 17.8504 6.64426C17.6907 6.72571 17.5559 6.84858 17.46 7Z" fill="url(#paint0_linear_1_425)"/>
<defs>
<linearGradient id="paint0_linear_1_425" x1="9.9988" y1="0.980713" x2="9.9988" y2="17" gradientUnits="userSpaceOnUse">
<stop stop-color="#FFBF00"/>
<stop offset="1" stop-color="#F2A50C"/>
</linearGradient>
</defs>
</svg>
