<svg width="32" height="32" viewBox="0 0 32 32" fill="none" xmlns="http://www.w3.org/2000/svg">
<path d="M8.06688 10.7333C6.32126 12.4792 5.33839 14.8455 5.33339 17.3144C5.3284 19.7833 6.30168 22.1536 8.04022 23.9066C10.0002 19.3733 13.4936 15.5866 17.8536 13.3333C14.0903 16.5175 11.55 20.91 10.6669 25.7599C14.1336 27.3999 18.4002 26.7999 21.2669 23.9333C25.2536 19.9466 26.3736 9.07994 26.6136 6.09327C26.6219 5.99837 26.6094 5.90279 26.5768 5.81326C26.5442 5.72373 26.4925 5.64242 26.4251 5.57506C26.3577 5.5077 26.2764 5.45591 26.1869 5.42335C26.0974 5.3908 26.0018 5.37825 25.9069 5.38661C22.9202 5.62661 12.0536 6.74661 8.06688 10.7333Z" fill="url(#paint0_linear_1_509)"/>
<defs>
<linearGradient id="paint0_linear_1_509" x1="15.9747" y1="5.38409" x2="15.9747" y2="26.6592" gradientUnits="userSpaceOnUse">
<stop stop-color="#FFBF00"/>
<stop offset="1" stop-color="#F2A50C"/>
</linearGradient>
</defs>
</svg>
